<svg xmlns="http://www.w3.org/2000/svg" viewBox="0 0 800 520" fill="none" role="img" aria-label="@52LN A09B0 " !"">
  <defs>
    <linearGradient id="sky" x1="0" y1="0" x2="0" y2="1">
      <stop offset="0%" stop-color="#0f172a"/>
      <stop offset="100%" stop-color="#020617"/>
    </linearGradient>
    <linearGradient id="pipe" x1="0" y1="0" x2="1" y2="1">
      <stop offset="0%" stop-color="#38bdf8"/>
      <stop offset="50%" stop-color="#0ea5e9"/>
      <stop offset="100%" stop-color="#0369a1"/>
    </linearGradient>
    <linearGradient id="accent" x1="0" y1="0" x2="1" y2="0">
      <stop offset="0%" stop-color="#fb7185"/>
      <stop offset="100%" stop-color="#e11d48"/>
    </linearGradient>
    <filter id="glow" x="-20%" y="-20%" width="140%" height="140%">
      <feGaussianBlur stdDeviation="12" result="b"/>
      <feMerge><feMergeNode in="b"/><feMergeNode in="SourceGraphic"/></feMerge>
    </filter>
  </defs>
  <rect width="800" height="520" fill="url(#sky)"/>
  <rect x="0" y="0" width="800" height="56" fill="rgba(255,255,255,0.04)"/>
  <rect x="32" y="18" width="120" height="20" rx="4" fill="rgba(255,255,255,0.12)"/>
  <rect x="480" y="22" width="52" height="10" rx="5" fill="rgba(255,255,255,0.08)"/>
  <rect x="548" y="22" width="52" height="10" rx="5" fill="rgba(255,255,255,0.08)"/>
  <rect x="616" y="22" width="52" height="10" rx="5" fill="rgba(255,255,255,0.08)"/>
  <rect x="684" y="16" width="84" height="24" rx="6" fill="url(#accent)" opacity="0.9"/>
  <text x="48" y="88" fill="#f8fafc" font-family="system-ui,sans-serif" font-size="28" font-weight="700">"@C1K </text>
  <text x="48" y="118" fill="#94a3b8" font-family="system-ui,sans-serif" font-size="14"> · A=0165=85 · <>=B06 · @0AGQB DN</text>
  <rect x="48" y="140" width="140" height="40" rx="8" fill="url(#accent)"/>
  <rect x="200" y="140" width="120" height="40" rx="8" fill="rgba(255,255,255,0.08)" stroke="rgba(255,255,255,0.15)"/>
  <g filter="url(#glow)" opacity="0.85">
    <ellipse cx="560" cy="280" rx="180" ry="120" fill="rgba(14,165,233,0.15)"/>
    <rect x="380" y="200" width="340" height="48" rx="24" fill="url(#pipe)"/>
    <rect x="400" y="268" width="300" height="36" rx="18" fill="url(#pipe)" opacity="0.7"/>
    <circle cx="520" cy="224" r="52" fill="none" stroke="#7dd3fc" stroke-width="3" opacity="0.6"/>
    <circle cx="520" cy="224" r="28" fill="rgba(56,189,248,0.25)"/>
  </g>
  <rect x="48" y="320" width="220" height="72" rx="12" fill="rgba(255,255,255,0.05)" stroke="rgba(255,255,255,0.1)"/>
  <rect x="60" y="336" width="80" height="8" rx="4" fill="rgba(255,255,255,0.2)"/>
  <rect x="60" y="354" width="140" height="6" rx="3" fill="rgba(255,255,255,0.1)"/>
  <rect x="60" y="368" width="100" height="6" rx="3" fill="rgba(255,255,255,0.08)"/>
  <rect x="288" y="320" width="220" height="72" rx="12" fill="rgba(255,255,255,0.05)" stroke="rgba(255,255,255,0.1)"/>
  <rect x="300" y="336" width="80" height="8" rx="4" fill="rgba(255,255,255,0.2)"/>
  <rect x="300" y="354" width="140" height="6" rx="3" fill="rgba(255,255,255,0.1)"/>
  <rect x="528" y="320" width="220" height="72" rx="12" fill="rgba(225,29,72,0.12)" stroke="rgba(251,113,133,0.25)"/>
  <rect x="540" y="336" width="100" height="8" rx="4" fill="url(#accent)" opacity="0.8"/>
  <rect x="540" y="354" width="160" height="6" rx="3" fill="rgba(255,255,255,0.12)"/>
  <rect x="48" y="420" width="704" height="72" rx="14" fill="rgba(15,23,42,0.8)" stroke="rgba(56,189,248,0.2)"/>
  <text x="68" y="452" fill="#e2e8f0" font-family="ui-monospace,monospace" font-size="11">0;L:C;OB>@ DN · 3D-@07@57 · PDF-A?5F8D8:0F8O</text>
  <text x="68" y="472" fill="#64748b" font-family="ui-monospace,monospace" font-size="10">0O2:0 ’ Telegram · 152-$</text>
</svg>
